mtllib models/entity/boundary.mtl
o Sphere
v -0.809017 0.587785 0.000000
v -0.587785 0.809017 0.000000
v -0.529576 0.809017 -0.255031
v -0.951057 0.309017 0.000000
v -0.728899 0.587785 -0.351019
v -1.000000 0.000000 0.000000
v -0.856872 0.309017 -0.412648
v -0.951056 -0.309017 -0.000000
v -0.900969 0.000000 -0.433884
v -0.809017 -0.587785 -0.000000
v -0.728899 -0.587785 -0.351019
v -0.309017 0.951057 0.000000
v -0.278415 0.951056 -0.134078
v -0.623490 0.000000 -0.781832
v -0.856872 -0.309017 -0.412648
v -0.592974 -0.309017 -0.743566
v -0.529576 -0.809017 -0.255031
v -0.366478 -0.809017 -0.459549
v -0.192669 0.951056 -0.241599
v -0.278414 -0.951057 -0.134078
v -0.504414 0.587785 -0.632515
v -0.192669 -0.951057 -0.241599
v -0.130794 -0.809017 -0.573048
v -0.366478 0.809017 -0.459549
v -0.130794 0.809017 -0.573048
v -0.592974 0.309017 -0.743566
v -0.180023 0.587785 -0.788734
v -0.211630 0.309017 -0.927212
v -0.211630 -0.309017 -0.927212
v -0.504414 -0.587785 -0.632515
v -0.180023 -0.587785 -0.788734
v -0.068762 0.951056 -0.301270
v 0.211630 -0.309017 -0.927212
v 0.180024 -0.587785 -0.788733
v 0.130795 0.809017 -0.573048
v -0.068762 -0.951057 -0.301269
v 0.130795 -0.809017 -0.573048
v 0.211630 0.309017 -0.927212
v -0.222521 0.000000 -0.974928
v 0.180024 0.587785 -0.788733
v 0.592974 0.309017 -0.743566
v 0.222521 0.000000 -0.974928
v 0.623490 0.000000 -0.781832
v 0.592974 -0.309017 -0.743566
v 0.366479 -0.809017 -0.459549
v 0.068763 0.951056 -0.301270
v 0.192669 0.951056 -0.241599
v 0.068763 -0.951057 -0.301269
v 0.366479 0.809017 -0.459549
v 0.504414 -0.587785 -0.632515
v 0.529577 -0.809017 -0.255031
v 0.278415 0.951056 -0.134078
v 0.192669 -0.951057 -0.241599
v 0.504414 0.587785 -0.632515
v 0.529577 0.809017 -0.255031
v 0.856873 0.309017 -0.412648
v 0.900969 0.000000 -0.433884
v 0.856873 -0.309017 -0.412648
v 0.951057 0.309017 0.000000
v 0.951057 -0.309017 -0.000000
v 0.728900 -0.587785 -0.351019
v 0.809017 -0.587785 -0.000000
v 0.309018 0.951056 0.000000
v 0.278415 -0.951057 -0.134077
v 0.587786 -0.809017 -0.000000
v 0.728900 0.587785 -0.351019
v 0.587786 0.809017 0.000000
v 0.309017 -0.951057 -0.000000
v 0.529577 -0.809017 0.255031
v 0.809017 0.587785 0.000000
v 0.529577 0.809017 0.255031
v 0.856873 0.309017 0.412648
v 1.000001 0.000000 0.000000
v 0.856873 -0.309017 0.412648
v 0.728900 -0.587785 0.351019
v 0.278415 0.951056 0.134078
v 0.900969 -0.000000 0.433884
v 0.623490 -0.000000 0.781832
v 0.592974 -0.309017 0.743566
v 0.504414 -0.587785 0.632515
v 0.192669 0.951056 0.241599
v 0.278415 -0.951057 0.134077
v 0.366479 -0.809017 0.459549
v 0.728900 0.587785 0.351019
v 0.366479 0.809017 0.459549
v 0.504414 0.587785 0.632515
v 0.592974 0.309017 0.743566
v 0.180024 0.587785 0.788733
v 0.211630 0.309017 0.927212
v 0.211630 -0.309017 0.927212
v 0.130795 -0.809017 0.573048
v 0.130795 0.809017 0.573048
v 0.192669 -0.951057 0.241599
v 0.068763 -0.951057 0.301269
v 0.180024 -0.587785 0.788733
v -0.130794 -0.809017 0.573048
v 0.068763 0.951056 0.301270
v -0.068762 0.951056 0.301270
v -0.130794 0.809017 0.573048
v -0.211630 0.309017 0.927212
v 0.222521 -0.000000 0.974928
v -0.222521 -0.000000 0.974928
v -0.211630 -0.309017 0.927212
v -0.623490 -0.000000 0.781832
v -0.180023 -0.587785 0.788733
v -0.592974 -0.309017 0.743566
v -0.504414 -0.587785 0.632515
v -0.192669 0.951056 0.241599
v -0.068762 -0.951057 0.301269
v -0.366478 -0.809017 0.459549
v -0.180023 0.587785 0.788733
v -0.366478 0.809017 0.459549
v -0.504414 0.587785 0.632515
v -0.192669 -0.951057 0.241599
v -0.278414 -0.951057 0.134077
v -0.529576 0.809017 0.255031
v -0.592974 0.309017 0.743566
v -0.728899 0.587785 0.351019
v -0.900969 -0.000000 0.433884
v -0.856872 -0.309017 0.412648
v -0.529576 -0.809017 0.255031
v -0.278415 0.951056 0.134078
v -0.309017 -0.951057 -0.000000
v -0.587785 -0.809017 -0.000000
v 0.000000 -1.000000 -0.000000
v 0.000000 1.000000 0.000000
v -0.728899 -0.587785 0.351019
v -0.856872 0.309017 0.412648
vt 0.000000 0.000000
vt 1.000000 0.000000
vt 1.000000 1.000000
vt 0.000000 1.000000
vn -0.698100 0.698100 -0.159300
vn -0.873100 0.444900 -0.199300
vn -0.963500 0.152600 -0.219900
vn -0.963500 -0.152600 -0.219900
vn -0.873100 -0.444900 -0.199300
vn -0.451600 0.886300 -0.103100
vn -0.772700 0.152600 -0.616200
vn -0.772700 -0.152600 -0.616200
vn -0.700200 -0.444900 -0.558400
vn -0.559800 -0.698100 -0.446400
vn -0.362100 0.886300 -0.288800
vn -0.362100 -0.886300 -0.288800
vn -0.559800 0.698100 -0.446400
vn -0.700200 0.444900 -0.558400
vn -0.201000 -0.886300 -0.417300
vn -0.310700 0.698100 -0.645100
vn -0.388600 0.444900 -0.806900
vn -0.428800 0.152600 -0.890400
vn -0.428800 -0.152600 -0.890400
vn -0.388600 -0.444900 -0.806900
vn -0.310700 -0.698100 -0.645100
vn -0.201000 0.886300 -0.417300
vn 0.000000 -0.444900 -0.895600
vn 0.000000 -0.698100 -0.716000
vn 0.000000 0.886300 -0.463200
vn 0.000000 -0.886300 -0.463200
vn 0.000000 0.698100 -0.716000
vn 0.000000 0.444900 -0.895600
vn 0.000000 0.152600 -0.988300
vn 0.000000 -0.152600 -0.988300
vn 0.388600 0.444900 -0.806900
vn 0.428800 0.152600 -0.890400
vn 0.428800 -0.152600 -0.890400
vn 0.388600 -0.444900 -0.806900
vn 0.310700 -0.698100 -0.645100
vn 0.201000 0.886300 -0.417300
vn 0.201000 -0.886300 -0.417300
vn 0.310700 0.698100 -0.645100
vn 0.559800 -0.698100 -0.446400
vn 0.362100 0.886300 -0.288800
vn 0.362100 -0.886300 -0.288800
vn 0.559800 0.698100 -0.446400
vn 0.700200 0.444900 -0.558400
vn 0.772700 0.152600 -0.616200
vn 0.772700 -0.152600 -0.616200
vn 0.700200 -0.444900 -0.558400
vn 0.963500 0.152600 -0.219900
vn 0.963500 -0.152600 -0.219900
vn 0.873100 -0.444900 -0.199300
vn 0.698100 -0.698100 -0.159300
vn 0.451600 0.886300 -0.103100
vn 0.451600 -0.886300 -0.103100
vn 0.698100 0.698100 -0.159300
vn 0.873100 0.444900 -0.199300
vn 0.451600 -0.886300 0.103100
vn 0.698100 0.698100 0.159300
vn 0.873100 0.444900 0.199300
vn 0.963500 0.152600 0.219900
vn 0.963500 -0.152600 0.219900
vn 0.873100 -0.444900 0.199300
vn 0.698100 -0.698100 0.159300
vn 0.451600 0.886300 0.103100
vn 0.772700 -0.152600 0.616200
vn 0.700200 -0.444900 0.558400
vn 0.559800 -0.698100 0.446400
vn 0.362100 0.886300 0.288800
vn 0.362100 -0.886300 0.288800
vn 0.559800 0.698100 0.446400
vn 0.700200 0.444900 0.558400
vn 0.772700 0.152600 0.616200
vn 0.388600 0.444900 0.806900
vn 0.428800 0.152600 0.890400
vn 0.428800 -0.152600 0.890400
vn 0.388600 -0.444900 0.806900
vn 0.310700 -0.698100 0.645100
vn 0.201000 0.886300 0.417300
vn 0.201000 -0.886300 0.417300
vn 0.310700 0.698100 0.645100
vn 0.000000 -0.698100 0.716000
vn 0.000000 0.886300 0.463200
vn 0.000000 -0.886300 0.463200
vn 0.000000 0.698100 0.716000
vn 0.000000 0.444900 0.895600
vn 0.000000 0.152600 0.988300
vn 0.000000 -0.152600 0.988300
vn 0.000000 -0.444900 0.895600
vn -0.428800 0.152600 0.890400
vn -0.428800 -0.152600 0.890400
vn -0.388600 -0.444900 0.806900
vn -0.310700 -0.698100 0.645100
vn -0.201000 0.886300 0.417300
vn -0.201000 -0.886300 0.417300
vn -0.310700 0.698100 0.645100
vn -0.388600 0.444900 0.806900
vn -0.362100 -0.886300 0.288800
vn -0.559800 0.698100 0.446400
vn -0.700200 0.444900 0.558400
vn -0.772700 0.152600 0.616200
vn -0.772700 -0.152600 0.616200
vn -0.700200 -0.444900 0.558400
vn -0.559800 -0.698100 0.446400
vn -0.362100 0.886300 0.288800
vn -0.451600 -0.886300 -0.103100
vn -0.156300 -0.987100 -0.035700
vn -0.156300 0.987100 -0.035700
vn -0.698100 -0.698100 -0.159300
vn -0.125400 0.987100 -0.100000
vn -0.125400 -0.987100 -0.100000
vn -0.069600 -0.987100 -0.144500
vn -0.069600 0.987100 -0.144500
vn 0.000000 0.987100 -0.160400
vn 0.000000 -0.987100 -0.160400
vn 0.069600 -0.987100 -0.144500
vn 0.069600 0.987100 -0.144500
vn 0.125400 -0.987100 -0.100000
vn 0.125400 0.987100 -0.100000
vn 0.156300 0.987100 -0.035700
vn 0.156300 -0.987100 -0.035700
vn 0.156300 -0.987100 0.035700
vn 0.156300 0.987100 0.035700
vn 0.125400 0.987100 0.100000
vn 0.125400 -0.987100 0.100000
vn 0.069600 -0.987100 0.144500
vn 0.069600 0.987100 0.144500
vn 0.000000 0.987100 0.160400
vn 0.000000 -0.987100 0.160400
vn -0.069600 0.987100 0.144500
vn -0.069600 -0.987100 0.144500
vn -0.125400 -0.987100 0.100000
vn -0.125400 0.987100 0.100000
vn -0.963500 -0.152600 0.219900
vn -0.873100 -0.444900 0.199300
vn -0.156300 0.987100 0.035700
vn -0.698100 -0.698100 0.159300
vn -0.451600 0.886300 0.103100
vn -0.451600 -0.886300 0.103100
vn -0.698100 0.698100 0.159300
vn -0.156300 -0.987100 0.035700
vn -0.873100 0.444900 0.199300
vn -0.963500 0.152600 0.219900
usemtl bubble
f 1/1/1 2/2/1 3/3/1
f 4/1/2 1/2/2 5/3/2
f 6/1/3 4/2/3 7/3/3
f 8/1/4 6/2/4 9/3/4
f 10/1/5 8/2/5 11/4/5
f 2/1/6 12/2/6 13/3/6
f 9/1/7 7/2/7 14/4/7
f 15/1/8 9/2/8 14/3/8
f 11/1/9 15/2/9 16/3/9
f 17/1/10 11/2/10 18/4/10
f 3/1/11 13/2/11 19/3/11
f 20/1/12 17/2/12 18/3/12
f 5/1/13 3/2/13 21/4/13
f 7/1/14 5/2/14 21/3/14
f 22/1/15 18/2/15 23/3/15
f 21/1/16 24/2/16 25/3/16
f 26/1/17 21/2/17 27/3/17
f 14/1/18 26/2/18 28/3/18
f 16/1/19 14/2/19 29/4/19
f 30/1/20 16/2/20 29/3/20
f 18/1/21 30/2/21 31/3/21
f 24/1/22 19/2/22 32/3/22
f 31/1/23 29/2/23 33/3/23
f 23/1/24 31/2/24 34/3/24
f 25/1/25 32/2/25 35/4/25
f 36/1/26 23/2/26 37/3/26
f 27/1/27 25/2/27 35/3/27
f 28/1/28 27/2/28 38/4/28
f 39/1/29 28/2/29 38/3/29
f 29/1/30 39/2/30 33/4/30
f 38/1/31 40/2/31 41/4/31
f 42/1/32 38/2/32 41/3/32
f 33/1/33 42/2/33 43/3/33
f 34/1/34 33/2/34 44/3/34
f 37/1/35 34/2/35 45/4/35
f 35/1/36 46/2/36 47/3/36
f 48/1/37 37/2/37 45/3/37
f 40/1/38 35/2/38 49/3/38
f 45/1/39 50/2/39 51/4/39
f 49/1/40 47/2/40 52/3/40
f 53/1/41 45/2/41 51/3/41
f 54/1/42 49/2/42 55/3/42
f 41/1/43 54/2/43 56/4/43
f 43/1/44 41/2/44 56/3/44
f 44/1/45 43/2/45 57/3/45
f 50/1/46 44/2/46 58/3/46
f 57/1/47 56/2/47 59/3/47
f 58/1/48 57/2/48 60/4/48
f 61/1/49 58/2/49 60/3/49
f 51/1/50 61/2/50 62/3/50
f 55/1/51 52/2/51 63/3/51
f 64/1/52 51/2/52 65/3/52
f 66/1/53 55/2/53 67/3/53
f 56/1/54 66/2/54 59/4/54
f 68/1/55 65/2/55 69/3/55
f 70/1/56 67/2/56 71/3/56
f 59/1/57 70/2/57 72/4/57
f 73/1/58 59/2/58 72/3/58
f 60/1/59 73/2/59 74/4/59
f 62/1/60 60/2/60 74/3/60
f 65/1/61 62/2/61 75/3/61
f 67/1/62 63/2/62 76/3/62
f 74/1/63 77/2/63 78/3/63
f 75/1/64 74/2/64 79/3/64
f 69/1/65 75/2/65 80/3/65
f 71/1/66 76/2/66 81/3/66
f 82/1/67 69/2/67 83/3/67
f 84/1/68 71/2/68 85/3/68
f 72/1/69 84/2/69 86/3/69
f 77/1/70 72/2/70 87/3/70
f 87/1/71 86/2/71 88/3/71
f 78/1/72 87/2/72 89/3/72
f 79/1/73 78/2/73 90/4/73
f 80/1/74 79/2/74 90/3/74
f 83/1/75 80/2/75 91/4/75
f 85/1/76 81/2/76 92/4/76
f 93/1/77 83/2/77 94/4/77
f 86/1/78 85/2/78 88/4/78
f 91/1/79 95/2/79 96/4/79
f 92/1/80 97/2/80 98/3/80
f 94/1/81 91/2/81 96/3/81
f 88/1/82 92/2/82 99/3/82
f 89/1/83 88/2/83 100/4/83
f 101/1/84 89/2/84 102/4/84
f 90/1/85 101/2/85 102/3/85
f 95/1/86 90/2/86 103/3/86
f 102/1/87 100/2/87 104/4/87
f 103/1/88 102/2/88 104/3/88
f 105/1/89 103/2/89 106/3/89
f 96/1/90 105/2/90 107/3/90
f 99/1/91 98/2/91 108/3/91
f 109/1/92 96/2/92 110/3/92
f 111/1/93 99/2/93 112/3/93
f 100/1/94 111/2/94 113/3/94
f 114/1/95 110/2/95 115/4/95
f 113/1/96 112/2/96 116/3/96
f 117/1/97 113/2/97 118/3/97
f 104/1/98 117/2/98 119/4/98
f 106/1/99 104/2/99 120/4/99
f 107/1/100 106/2/100 120/3/100
f 110/1/101 107/2/101 121/4/101
f 112/1/102 108/2/102 122/3/102
f 123/1/103 124/2/103 17/3/103
f 125/1/104 123/2/104 20/3/104
f 12/1/105 126/2/105 13/3/105
f 124/1/106 10/2/106 11/3/106
f 13/1/107 126/2/107 19/3/107
f 125/1/108 20/2/108 22/3/108
f 125/1/109 22/2/109 36/3/109
f 19/1/110 126/2/110 32/3/110
f 32/1/111 126/2/111 46/3/111
f 125/1/112 36/2/112 48/3/112
f 125/1/113 48/2/113 53/3/113
f 46/1/114 126/2/114 47/3/114
f 125/1/115 53/2/115 64/3/115
f 47/1/116 126/2/116 52/3/116
f 52/1/117 126/2/117 63/3/117
f 125/1/118 64/2/118 68/3/118
f 125/1/119 68/2/119 82/3/119
f 63/1/120 126/2/120 76/3/120
f 76/1/121 126/2/121 81/3/121
f 125/1/122 82/2/122 93/3/122
f 125/1/123 93/2/123 94/3/123
f 81/1/124 126/2/124 97/3/124
f 97/1/125 126/2/125 98/3/125
f 125/1/126 94/2/126 109/3/126
f 98/1/127 126/2/127 108/3/127
f 125/1/128 109/2/128 114/3/128
f 125/1/129 114/2/129 115/3/129
f 108/1/130 126/2/130 122/3/130
f 120/1/131 119/2/131 8/4/131
f 127/1/132 120/2/132 8/3/132
f 122/1/133 126/2/133 12/3/133
f 121/1/134 127/2/134 10/3/134
f 116/1/135 122/2/135 12/3/135
f 115/1/136 121/2/136 123/4/136
f 118/1/137 116/2/137 1/4/137
f 125/1/138 115/2/138 123/3/138
f 128/1/139 118/2/139 1/3/139
f 119/1/140 128/2/140 4/3/140
f 5/4/1 1/1/1 3/3/1
f 7/4/2 4/1/2 5/3/2
f 9/4/3 6/1/3 7/3/3
f 15/4/4 8/1/4 9/3/4
f 117/2/98 128/3/98 119/4/98
f 3/4/6 2/1/6 13/3/6
f 81/2/76 97/3/76 92/4/76
f 16/4/8 15/1/8 14/3/8
f 30/4/9 11/1/9 16/3/9
f 80/2/75 95/3/75 91/4/75
f 24/4/11 3/1/11 19/3/11
f 22/4/12 20/1/12 18/3/12
f 50/2/39 61/3/39 51/4/39
f 26/4/14 7/1/14 21/3/14
f 36/4/15 22/1/15 23/3/15
f 27/4/16 21/1/16 25/3/16
f 28/4/17 26/1/17 27/3/17
f 39/4/18 14/1/18 28/3/18
f 119/2/131 6/3/131 8/4/131
f 31/4/20 30/1/20 29/3/20
f 23/4/21 18/1/21 31/3/21
f 25/4/22 24/1/22 32/3/22
f 34/4/23 31/1/23 33/3/23
f 37/4/24 23/1/24 34/3/24
f 89/2/84 100/3/84 102/4/84
f 48/4/26 36/1/26 37/3/26
f 40/4/27 27/1/27 35/3/27
f 88/2/83 111/3/83 100/4/83
f 42/4/29 39/1/29 38/3/29
f 85/2/78 92/3/78 88/4/78
f 66/2/54 70/3/54 59/4/54
f 43/4/32 42/1/32 41/3/32
f 44/4/33 33/1/33 43/3/33
f 50/4/34 34/1/34 44/3/34
f 32/2/25 46/3/25 35/4/25
f 49/4/36 35/1/36 47/3/36
f 53/4/37 48/1/37 45/3/37
f 54/4/38 40/1/38 49/3/38
f 121/2/136 124/3/136 123/4/136
f 55/4/40 49/1/40 52/3/40
f 64/4/41 53/1/41 51/3/41
f 66/4/42 54/1/42 55/3/42
f 73/2/59 77/3/59 74/4/59
f 57/4/44 43/1/44 56/3/44
f 58/4/45 44/1/45 57/3/45
f 61/4/46 50/1/46 58/3/46
f 73/4/47 57/1/47 59/3/47
f 14/2/19 39/3/19 29/4/19
f 62/4/49 61/1/49 60/3/49
f 65/4/50 51/1/50 62/3/50
f 67/4/51 55/1/51 63/3/51
f 68/4/52 64/1/52 65/3/52
f 70/4/53 66/1/53 67/3/53
f 70/2/57 84/3/57 72/4/57
f 82/4/55 68/1/55 69/3/55
f 84/4/56 70/1/56 71/3/56
f 7/2/7 26/3/7 14/4/7
f 77/4/58 73/1/58 72/3/58
f 40/2/31 54/3/31 41/4/31
f 75/4/60 62/1/60 74/3/60
f 69/4/61 65/1/61 75/3/61
f 71/4/62 67/1/62 76/3/62
f 79/4/63 74/1/63 78/3/63
f 80/4/64 75/1/64 79/3/64
f 83/4/65 69/1/65 80/3/65
f 85/4/66 71/1/66 81/3/66
f 93/4/67 82/1/67 83/3/67
f 86/4/68 84/1/68 85/3/68
f 87/4/69 72/1/69 86/3/69
f 78/4/70 77/1/70 87/3/70
f 89/4/71 87/1/71 88/3/71
f 101/4/72 78/1/72 89/3/72
f 116/2/137 2/3/137 1/4/137
f 95/4/74 80/1/74 90/3/74
f 27/2/28 40/3/28 38/4/28
f 11/2/10 30/3/10 18/4/10
f 110/2/95 121/3/95 115/4/95
f 83/2/77 91/3/77 94/4/77
f 99/4/80 92/1/80 98/3/80
f 109/4/81 94/1/81 96/3/81
f 111/4/82 88/1/82 99/3/82
f 57/2/48 73/3/48 60/4/48
f 39/2/30 42/3/30 33/4/30
f 103/4/85 90/1/85 102/3/85
f 105/4/86 95/1/86 103/3/86
f 95/2/79 105/3/79 96/4/79
f 106/4/88 103/1/88 104/3/88
f 107/4/89 105/1/89 106/3/89
f 110/4/90 96/1/90 107/3/90
f 112/4/91 99/1/91 108/3/91
f 114/4/92 109/1/92 110/3/92
f 113/4/93 111/1/93 112/3/93
f 117/4/94 100/1/94 113/3/94
f 8/2/5 15/3/5 11/4/5
f 118/4/96 113/1/96 116/3/96
f 128/4/97 117/1/97 118/3/97
f 34/2/35 50/3/35 45/4/35
f 107/2/101 127/3/101 121/4/101
f 127/4/100 107/1/100 120/3/100
f 78/2/73 101/3/73 90/4/73
f 116/4/102 112/1/102 122/3/102
f 20/4/103 123/1/103 17/3/103
f 17/4/106 124/1/106 11/3/106
f 104/2/99 119/3/99 120/4/99
f 10/4/132 127/1/132 8/3/132
f 124/4/134 121/1/134 10/3/134
f 2/4/135 116/1/135 12/3/135
f 100/2/87 117/3/87 104/4/87
f 3/2/13 24/3/13 21/4/13
f 4/4/139 128/1/139 1/3/139
f 6/4/140 119/1/140 4/3/140
f 54/2/43 66/3/43 56/4/43